# xmcd CD database file
#
# Track frame offsets:
#	150
#	23035
#	47880
#	71760
#	85085
#	114585
#	138010
#	155115
#	170060
#	187420
#	205290
#
# Disc length: 2967 seconds
#
# Revision: 1
# Processed by: cddbd v1.5PL3 Copyright (c) Steve Scherf et al.
# Submitted via: CDex 1.51
#
DISCID=a10b950b
DTITLE=Ismo Alanko - Irti
DYEAR=1996
DGENRE=Other
TTITLE0=Piste
TTITLE1=Kriisistä kriisiin
TTITLE2=Elämä on hauras
TTITLE3=Häpeä ja kateus
TTITLE4=Aika kuolla
TTITLE5=Mitä se mulle kuuluu mitä mä teen
TTITLE6=Rakkauden tila
TTITLE7=Rokin kreivi
TTITLE8=Miespaholainen
TTITLE9=Lokki
TTITLE10=Lasten laulu
EXTD=YEAR: 1996
EXTT0=
EXTT1=
EXTT2=
EXTT3=
EXTT4=
EXTT5=
EXTT6=
EXTT7=
EXTT8=
EXTT9=
EXTT10=
PLAYORDER=
